<svg width="24" height="24" viewBox="0 0 24 24" fill="none" xmlns="http://www.w3.org/2000/svg">
<g clip-path="url(#clip0_10_909)">
<path d="M0.879999 9.9099L4.75 5.9999C4.84296 5.90617 4.95357 5.83178 5.07542 5.78101C5.19728 5.73024 5.32799 5.7041 5.46 5.7041C5.59201 5.7041 5.72272 5.73024 5.84458 5.78101C5.96643 5.83178 6.07704 5.90617 6.17 5.9999C6.35625 6.18726 6.46079 6.44071 6.46079 6.7049C6.46079 6.96909 6.35625 7.22254 6.17 7.4099L2.61 10.9999H23C23.2652 10.9999 23.5196 11.1053 23.7071 11.2928C23.8946 11.4803 24 11.7347 24 11.9999V11.9999C24 12.2651 23.8946 12.5195 23.7071 12.707C23.5196 12.8945 23.2652 12.9999 23 12.9999H2.55L6.17 16.6099C6.26373 16.7029 6.33812 16.8135 6.38889 16.9353C6.43966 17.0572 6.4658 17.1879 6.4658 17.3199C6.4658 17.4519 6.43966 17.5826 6.38889 17.7045C6.33812 17.8263 6.26373 17.9369 6.17 18.0299C6.07704 18.1236 5.96643 18.198 5.84458 18.2488C5.72272 18.2996 5.59201 18.3257 5.46 18.3257C5.32799 18.3257 5.19728 18.2996 5.07542 18.2488C4.95357 18.198 4.84296 18.1236 4.75 18.0299L0.879999 14.1499C0.318197 13.5874 0.00263977 12.8249 0.00263977 12.0299C0.00263977 11.2349 0.318197 10.4724 0.879999 9.9099Z" fill="white"/>
</g>
<defs>
<clipPath id="clip0_10_909">
<rect width="24" height="24" fill="white" transform="matrix(-1 0 0 1 24 0)"/>
</clipPath>
</defs>
</svg>
