<svg width="24" height="24" viewBox="0 0 24 24" fill="none" xmlns="http://www.w3.org/2000/svg">
<g clip-path="url(#clip0_145_29)">
<mask id="mask0_145_29" style="mask-type:luminance" maskUnits="userSpaceOnUse" x="0" y="0" width="24" height="24">
<path d="M24 0H0V24H24V0Z" fill="white"/>
</mask>
<g mask="url(#mask0_145_29)">
<path fill-rule="evenodd" clip-rule="evenodd" d="M2.82772 0.765255C3.09018 0.503188 3.40534 0.299893 3.75231 0.16884C4.09929 0.037788 4.47015 -0.0180285 4.84033 0.00508984C5.2105 0.0282082 5.57154 0.129733 5.89951 0.302937C6.22748 0.476142 6.5149 0.71707 6.74272 1.00976L9.43522 4.46876C9.92872 5.10326 10.1027 5.92975 9.90772 6.70975L9.08722 9.99475C9.0448 10.1649 9.04709 10.3431 9.09387 10.5121C9.14065 10.6811 9.23034 10.8351 9.35422 10.9592L13.0397 14.6447C13.164 14.7689 13.3183 14.8587 13.4875 14.9055C13.6568 14.9523 13.8354 14.9544 14.0057 14.9117L17.2892 14.0912C17.6741 13.995 18.0759 13.9875 18.4641 14.0694C18.8524 14.1512 19.2169 14.3203 19.5302 14.5637L22.9892 17.2547C24.2327 18.2222 24.3467 20.0597 23.2337 21.1712L21.6827 22.7222C20.5727 23.8322 18.9137 24.3197 17.3672 23.7752C13.409 22.3825 9.81513 20.1165 6.85222 17.1452C3.88115 14.1827 1.61513 10.5894 0.222218 6.63176C-0.320782 5.08676 0.166718 3.42626 1.27672 2.31626L2.82772 0.765255Z" fill="black"/>
</g>
</g>
<defs>
<clipPath id="clip0_145_29">
<rect width="24" height="24" fill="white"/>
</clipPath>
</defs>
</svg>
