<svg width="21" height="21" viewBox="0 0 21 21" fill="none" xmlns="http://www.w3.org/2000/svg">
<g clip-path="url(#clip0_541_1997)">
<path d="M20.9598 4.84912L13.594 12.2149C12.7727 13.0341 11.66 13.4942 10.5 13.4942C9.33997 13.4942 8.2273 13.0341 7.406 12.2149L0.04025 4.84912C0.028 4.98737 0 5.1125 0 5.24987V15.7499C0.00138938 16.9098 0.462772 18.0218 1.28294 18.8419C2.10311 19.6621 3.2151 20.1235 4.375 20.1249H16.625C17.7849 20.1235 18.8969 19.6621 19.7171 18.8419C20.5372 18.0218 20.9986 16.9098 21 15.7499V5.24987C21 5.1125 20.972 4.98737 20.9598 4.84912Z" fill="#E62254"/>
<path d="M12.3568 10.9776L20.349 2.9845C19.9619 2.34253 19.4158 1.81116 18.7635 1.44164C18.1112 1.07212 17.3747 0.876926 16.625 0.874878H4.37503C3.62535 0.876926 2.88885 1.07212 2.23655 1.44164C1.58426 1.81116 1.0382 2.34253 0.651031 2.9845L8.64328 10.9776C9.13641 11.4688 9.80404 11.7445 10.5 11.7445C11.196 11.7445 11.8637 11.4688 12.3568 10.9776Z" fill="#E62254"/>
</g>
<defs>
<clipPath id="clip0_541_1997">
<rect width="21" height="21" fill="white"/>
</clipPath>
</defs>
</svg>
