<svg width="20" height="20" viewBox="0 0 20 20" fill="none" xmlns="http://www.w3.org/2000/svg">
<g clip-path="url(#clip0_130_35)">
<mask id="mask0_130_35" style="mask-type:luminance" maskUnits="userSpaceOnUse" x="0" y="0" width="20" height="20">
<path d="M20 0H0V20H20V0Z" fill="white"/>
</mask>
<g mask="url(#mask0_130_35)">
<path d="M18.3334 13.491C18.3334 16.5243 16.525 18.3327 13.4917 18.3327H12.5C12.279 18.3327 12.067 18.2449 11.9108 18.0886C11.7545 17.9323 11.6667 17.7203 11.6667 17.4993V12.691C11.6667 12.5819 11.7094 12.4772 11.7858 12.3993C11.8621 12.3214 11.966 12.2765 12.075 12.2743L13.5417 12.2493C13.5991 12.2454 13.6537 12.223 13.6973 12.1855C13.7408 12.1479 13.771 12.0972 13.7834 12.041L14.075 10.4493C14.0811 10.4132 14.0792 10.3762 14.0694 10.3408C14.0596 10.3055 14.0422 10.2728 14.0183 10.2449C13.9945 10.2171 13.9648 10.1949 13.9314 10.1798C13.898 10.1647 13.8617 10.1572 13.825 10.1577L12.05 10.1827C11.94 10.1832 11.8341 10.1408 11.7548 10.0646C11.6755 9.98841 11.6289 9.8843 11.625 9.77436L11.5917 7.73269C11.5917 7.66639 11.618 7.6028 11.6649 7.55591C11.7118 7.50903 11.7754 7.48269 11.8417 7.48269L13.8417 7.44936C13.908 7.44936 13.9716 7.42302 14.0185 7.37613C14.0653 7.32925 14.0917 7.26566 14.0917 7.19936L14.0584 5.19936C14.0584 5.13305 14.032 5.06946 13.9851 5.02258C13.9382 4.9757 13.8747 4.94936 13.8084 4.94936L11.5584 4.98269C11.23 4.98812 10.906 5.05817 10.6048 5.18884C10.3035 5.31952 10.031 5.50826 9.80269 5.74429C9.5744 5.98031 9.39485 6.259 9.27428 6.56442C9.15372 6.86985 9.0945 7.19604 9.10002 7.52436L9.14169 9.81602C9.14279 9.87074 9.13311 9.92514 9.11318 9.97612C9.09326 10.0271 9.06348 10.0736 9.02556 10.1131C8.98764 10.1526 8.94232 10.1842 8.89218 10.2061C8.84204 10.2281 8.78807 10.2399 8.73335 10.241L7.73335 10.2577C7.66705 10.2577 7.60346 10.284 7.55658 10.3309C7.50969 10.3778 7.48335 10.4414 7.48335 10.5077L7.50835 12.091C7.50835 12.1573 7.53469 12.2209 7.58158 12.2678C7.62846 12.3147 7.69205 12.341 7.75835 12.341L8.75835 12.3243C8.86836 12.3238 8.97425 12.3662 9.05358 12.4424C9.13291 12.5186 9.17946 12.6227 9.18335 12.7327L9.25835 17.4827C9.26057 17.5935 9.24065 17.7037 9.19977 17.8067C9.15888 17.9097 9.09785 18.0036 9.02025 18.0827C8.94264 18.1619 8.85003 18.2248 8.74782 18.2677C8.64561 18.3106 8.53587 18.3327 8.42502 18.3327H6.50835C3.47502 18.3327 1.66669 16.5243 1.66669 13.4827V6.50769C1.66669 3.47436 3.47502 1.66602 6.50835 1.66602H13.4917C16.525 1.66602 18.3334 3.47436 18.3334 6.50769V13.491Z" fill="#6197B1"/>
</g>
</g>
<defs>
<clipPath id="clip0_130_35">
<rect width="20" height="20" fill="white"/>
</clipPath>
</defs>
</svg>
