<svg width="20" height="20" viewBox="0 0 20 20" fill="none" xmlns="http://www.w3.org/2000/svg">
<g clip-path="url(#clip0_130_47)">
<mask id="mask0_130_47" style="mask-type:luminance" maskUnits="userSpaceOnUse" x="0" y="0" width="20" height="20">
<path d="M20 0H0V20H20V0Z" fill="white"/>
</mask>
<g mask="url(#mask0_130_47)">
<path d="M13.4917 1.66602H6.50835C3.47502 1.66602 1.66669 3.47436 1.66669 6.50769V13.4827C1.66669 16.5243 3.47502 18.3327 6.50835 18.3327H13.4834C16.5167 18.3327 18.325 16.5243 18.325 13.491V6.50769C18.3334 3.47436 16.525 1.66602 13.4917 1.66602ZM10 13.2327C9.36053 13.2327 8.7354 13.043 8.20368 12.6878C7.67196 12.3325 7.25753 11.8275 7.01281 11.2367C6.76809 10.6459 6.70406 9.99577 6.82881 9.36857C6.95357 8.74136 7.26152 8.16524 7.71371 7.71305C8.1659 7.26086 8.74202 6.95291 9.36923 6.82815C9.99643 6.70339 10.6465 6.76742 11.2374 7.01215C11.8282 7.25687 12.3332 7.67129 12.6884 8.20301C13.0437 8.73473 13.2334 9.35986 13.2334 9.99936C13.2325 10.8566 12.8915 11.6785 12.2854 12.2847C11.6792 12.8909 10.8573 13.2318 10 13.2327ZM14.9334 5.73269C14.8911 5.83364 14.8319 5.92664 14.7584 6.00769C14.6773 6.08123 14.5843 6.14042 14.4834 6.18269C14.3318 6.24763 14.1643 6.26567 14.0024 6.23447C13.8404 6.20328 13.6916 6.12429 13.575 6.00769C13.5015 5.92664 13.4423 5.83364 13.4 5.73269C13.3561 5.6329 13.3334 5.52506 13.3334 5.41602C13.3334 5.30699 13.3561 5.19915 13.4 5.09936C13.4403 4.99737 13.4997 4.90403 13.575 4.82436C13.672 4.72828 13.7912 4.65752 13.9219 4.61828C14.0527 4.57905 14.1911 4.57255 14.325 4.59936C14.3802 4.60708 14.4337 4.62398 14.4834 4.64936C14.5365 4.66757 14.5869 4.69279 14.6334 4.72436C14.677 4.75512 14.7188 4.78851 14.7584 4.82436C14.8337 4.90403 14.8931 4.99737 14.9334 5.09936C14.9773 5.19915 15 5.30699 15 5.41602C15 5.52506 14.9773 5.6329 14.9334 5.73269Z" fill="#6197B1"/>
</g>
</g>
<defs>
<clipPath id="clip0_130_47">
<rect width="20" height="20" fill="white"/>
</clipPath>
</defs>
</svg>
