<svg width="20" height="20" viewBox="0 0 20 20" fill="none" xmlns="http://www.w3.org/2000/svg">
<g clip-path="url(#clip0_130_59)">
<mask id="mask0_130_59" style="mask-type:luminance" maskUnits="userSpaceOnUse" x="0" y="0" width="20" height="20">
<path d="M20 0H0V20H20V0Z" fill="white"/>
</mask>
<g mask="url(#mask0_130_59)">
<path d="M13.4832 18.3332H6.50915C3.47749 18.3332 1.66663 16.5198 1.66663 13.4832V6.50818C1.66663 3.47652 3.47666 1.66652 6.50915 1.66652H13.4924C14.1413 1.63338 14.7902 1.72995 15.4014 1.95059C16.0125 2.17122 16.5735 2.5115 17.0516 2.95151C17.4896 3.42978 17.8281 3.99059 18.0468 4.60114C18.2656 5.21168 18.3604 5.85973 18.3258 6.50737V13.4907C18.3249 16.5232 16.5149 18.3332 13.4832 18.3332ZM12.0758 9.30817C12.7041 9.30817 13.3374 9.79484 13.3374 10.8815V14.5049H15.4891V10.134C15.5283 9.78256 15.4917 9.42673 15.3816 9.09063C15.2716 8.75453 15.0907 8.44599 14.8512 8.18579C14.6117 7.92558 14.3191 7.7198 13.9933 7.58235C13.6674 7.4449 13.3159 7.37897 12.9624 7.38902C12.5241 7.37028 12.0885 7.46574 11.6982 7.66602C11.3078 7.8663 10.9762 8.16451 10.7358 8.5315V7.60153H8.5933V14.504H10.7367V10.8807C10.7151 10.6884 10.7333 10.4937 10.79 10.3086C10.8466 10.1235 10.9406 9.95204 11.066 9.80469C11.1915 9.65735 11.3458 9.53725 11.5195 9.45186C11.6932 9.36647 11.8825 9.31756 12.0758 9.30817ZM5.13586 7.60234V14.5049H7.29325V7.60234H5.13586ZM6.21496 4.58318C5.93021 4.58473 5.65768 4.6991 5.45711 4.90123C5.25654 5.10336 5.14435 5.37677 5.14502 5.66152C5.14435 5.94628 5.25654 6.21969 5.45711 6.42182C5.65768 6.62395 5.93021 6.73832 6.21496 6.73986C6.49964 6.73832 6.77197 6.62392 6.97241 6.42177C7.17285 6.21961 7.28498 5.9462 7.2841 5.66152C7.28498 5.37685 7.17285 5.10344 6.97241 4.90128C6.77197 4.69912 6.49964 4.58473 6.21496 4.58318Z" fill="#6197B1"/>
</g>
</g>
<defs>
<clipPath id="clip0_130_59">
<rect width="20" height="20" fill="white"/>
</clipPath>
</defs>
</svg>
