<svg width="30" height="32" viewBox="0 0 30 32" fill="none" xmlns="http://www.w3.org/2000/svg">
<path d="M28.9 13.4312L24.0625 8.42278C23.9463 8.30272 23.808 8.20743 23.6557 8.1424C23.5034 8.07737 23.34 8.04388 23.175 8.04388C23.01 8.04388 22.8466 8.07737 22.6943 8.1424C22.542 8.20743 22.4037 8.30272 22.2875 8.42278C22.0547 8.66278 21.924 8.98743 21.924 9.32583C21.924 9.66423 22.0547 9.98888 22.2875 10.2289L26.7375 14.8274H1.25C0.918479 14.8274 0.600537 14.9623 0.366116 15.2026C0.131696 15.4428 0 15.7686 0 16.1083H0C0 16.448 0.131696 16.7738 0.366116 17.0141C0.600537 17.2543 0.918479 17.3892 1.25 17.3892H26.8125L22.2875 22.0134C22.1703 22.1324 22.0773 22.2741 22.0139 22.4302C21.9504 22.5863 21.9178 22.7537 21.9178 22.9228C21.9178 23.0919 21.9504 23.2593 22.0139 23.4154C22.0773 23.5715 22.1703 23.7132 22.2875 23.8323C22.4037 23.9523 22.542 24.0476 22.6943 24.1126C22.8466 24.1777 23.01 24.2112 23.175 24.2112C23.34 24.2112 23.5034 24.1777 23.6557 24.1126C23.808 24.0476 23.9463 23.9523 24.0625 23.8323L28.9 18.8623C29.6023 18.1418 29.9967 17.1651 29.9967 16.1467C29.9967 15.1284 29.6023 14.1517 28.9 13.4312Z" fill="white"/>
</svg>
