<svg width="20" height="20" viewBox="0 0 20 20" fill="none" xmlns="http://www.w3.org/2000/svg">
<g clip-path="url(#clip0_130_71)">
<mask id="mask0_130_71" style="mask-type:luminance" maskUnits="userSpaceOnUse" x="0" y="0" width="20" height="20">
<path d="M20 0H0V20H20V0Z" fill="white"/>
</mask>
<g mask="url(#mask0_130_71)">
<path d="M13.4825 18.3332H6.5084C3.47674 18.3332 1.66669 16.5199 1.66669 13.4832V6.50822C1.66669 3.47655 3.47674 1.6665 6.5084 1.6665H13.4916C14.1405 1.63341 14.7895 1.72998 15.4006 1.95062C16.0117 2.17126 16.5727 2.51152 17.0508 2.95149C17.4889 3.42989 17.8273 3.99079 18.0461 4.60148C18.2649 5.21217 18.3597 5.86045 18.325 6.50822V13.4915C18.325 16.5231 16.515 18.3332 13.4825 18.3332ZM5.00083 13.5057C5.99537 14.1442 7.15231 14.4837 8.33417 14.484H8.35004C9.21969 14.504 10.083 14.3332 10.8795 13.9835C11.676 13.6338 12.3863 13.1137 12.96 12.4599C13.9793 11.3 14.5474 9.81221 14.5608 8.26817C14.5608 8.17567 14.5609 8.07899 14.5543 7.98649C14.9826 7.67749 15.3517 7.29386 15.6441 6.85398C15.2456 7.03149 14.8226 7.1475 14.3893 7.19812C14.8451 6.92512 15.1863 6.49613 15.35 5.99064C14.9206 6.24484 14.4511 6.42406 13.9616 6.52063C13.7578 6.30226 13.5111 6.12842 13.2369 6.00997C12.9627 5.89151 12.6671 5.83107 12.3684 5.83235C11.8108 5.83112 11.2739 6.04379 10.8683 6.42653C10.5908 6.68878 10.3864 7.01881 10.2755 7.38417C10.1646 7.74954 10.1509 8.13759 10.2358 8.50986C9.36776 8.46556 8.51872 8.23949 7.74355 7.84631C6.96838 7.45313 6.28444 6.90158 5.7359 6.22735C5.45787 6.70863 5.37301 7.27748 5.49847 7.81895C5.62394 8.36041 5.9504 8.83407 6.41176 9.14402C6.06436 9.13286 5.72448 9.03888 5.42076 8.86987V8.89734C5.42207 9.40102 5.59685 9.88884 5.91555 10.2789C6.23425 10.6689 6.67752 10.9373 7.17084 11.039C6.98398 11.0899 6.79118 11.1157 6.59751 11.1157C6.45905 11.1156 6.32101 11.1023 6.18512 11.0757C6.32459 11.5098 6.59616 11.8895 6.9621 12.1616C7.32803 12.4337 7.77 12.5847 8.22593 12.5932C7.45308 13.1992 6.4997 13.5292 5.5176 13.5307H5.51251C5.34134 13.5322 5.17105 13.5239 5.00083 13.5057Z" fill="#6197B1"/>
</g>
</g>
<defs>
<clipPath id="clip0_130_71">
<rect width="20" height="20" fill="white"/>
</clipPath>
</defs>
</svg>
